<svg id="Layer_1" data-name="Layer 1" xmlns="http://www.w3.org/2000/svg" viewBox="0 0 81 81"><defs><style>.cls-1{fill:#fff;}.cls-2{fill:none;stroke:#fff;stroke-miterlimit:10;stroke-width:5px;}</style></defs><title>Artboard 1</title><path class="cls-1" d="M69,5a7,7,0,0,1,7,7V69a7,7,0,0,1-7,7H12a7,7,0,0,1-7-7V12a7,7,0,0,1,7-7H69m0-5H12A12,12,0,0,0,0,12V69A12,12,0,0,0,12,81H69A12,12,0,0,0,81,69V12A12,12,0,0,0,69,0Z"/><line class="cls-2" x1="13.63" y1="15" x2="67.38" y2="15"/><line class="cls-2" x1="13.63" y1="32" x2="67.38" y2="32"/><line class="cls-2" x1="13.63" y1="49" x2="67.38" y2="49"/><line class="cls-2" x1="13.63" y1="66" x2="67.38" y2="66"/></svg>